<?xml version="1.0" encoding="UTF-8"?>
<!DOCTYPE svg PUBLIC "-//W3C//DTD SVG 1.1//EN" "http://www.w3.org/Graphics/SVG/1.1/DTD/svg11.dtd">
<!-- Creator: CorelDRAW -->
<svg xmlns="http://www.w3.org/2000/svg" xml:space="preserve" width="512px" height="512px" version="1.1" shape-rendering="geometricPrecision" text-rendering="geometricPrecision" image-rendering="optimizeQuality" fill-rule="evenodd" clip-rule="evenodd"
viewBox="0 0 512 512"
 xmlns:xlink="http://www.w3.org/1999/xlink"
 xmlns:xodm="http://www.corel.com/coreldraw/odm/2003">
 <g id="Слой_x0020_1">
  <metadata id="CorelCorpID_0Corel-Layer"/>
  <path fill="white" d="M419.118 415.112l-29.103 19.229c-2.023,1.369 -7.933,5.321 -15.802,10.552l0 -62.856 15.942 -15.654c3.394,-0.003 6.144,-2.754 6.144,-6.149 0,-3.396 -2.753,-6.148 -6.148,-6.148 -3.396,0 -6.148,2.752 -6.148,6.148 0,0.663 0.106,1.301 0.3,1.899l-17.087 16.779 -0.136 0 0 0.133 -0.034 0.034 0.034 0.036 0 70.514c-24.962,16.549 -61.276,40.399 -65.682,42.24l0.083 -146.784c10.162,-7.871 51.459,-18.426 62.572,-54.723 3.446,-11.251 2.177,-24.651 3.723,-36.74l-72.072 15.397c-6.559,1.19 -19.497,2.522 -25.018,4.318 -1.585,-6.645 -0.618,-45.347 -0.656,-55.225 -0.071,-18.353 -0.484,-36.514 -0.879,-54.828 -0.655,-30.352 -2.02,-51.899 -3.352,-80.779 -0.407,-8.822 -1.628,-17.295 -2.15,-25.874l-0.047 -0.096c-0.05,0.091 -0.1,0.19 -0.15,0.297 -0.533,8.458 -1.726,16.819 -2.128,25.519 -1.332,28.881 -2.697,50.428 -3.352,80.779 -0.395,18.314 -0.808,36.475 -0.879,54.829 -0.038,9.877 0.929,48.578 -0.656,55.224 -5.522,-1.796 -18.459,-3.128 -25.018,-4.317l-72.072 -15.398c1.546,12.089 0.277,25.489 3.723,36.74 11.113,36.297 52.41,46.852 62.572,54.723l0.083 146.784c-6.407,-2.678 -80.301,-51.902 -88.617,-57.527l-29.104 -19.229c1.446,-4.39 3.22,-8.274 4.812,-12.924 4.43,-12.944 7.501,-29.128 9.539,-43.141 10.746,-73.897 -8.604,-129.542 21.171,-190.12 21.82,-44.391 52.828,-59.524 81.81,-90.478 5.152,-5.502 10.309,-11.866 15.097,-19.164 8.48,-12.929 15.041,-25.214 20.528,-40 0.416,-1.121 0.784,-2.31 1.098,-3.145 0.514,-1.373 -0.034,-0.154 0.634,-1.558 0.519,-1.089 0.331,-0.755 0.856,-1.43l0.078 0.223c0.459,0.584 0.303,0.31 0.803,1.361 0.667,1.404 0.12,0.184 0.634,1.558 0.313,0.835 0.682,2.024 1.098,3.144 5.486,14.786 12.048,27.072 20.528,40.001 1.734,2.643 3.516,5.162 5.329,7.563l0 102.831c-3.975,1.501 -6.802,5.337 -6.802,9.836 0,5.805 4.705,10.51 10.511,10.51 5.803,0 10.51,-4.705 10.51,-10.51 0,-4.499 -2.829,-8.335 -6.802,-9.836l0 -93.801c0.783,0.878 1.567,1.734 2.351,2.571 4.773,5.098 9.599,9.764 14.432,14.205l0 51.528c-3.392,1.28 -5.805,4.556 -5.805,8.396 0,4.954 4.017,8.97 8.97,8.97 4.954,0 8.971,-4.016 8.971,-8.97 0,-3.84 -2.413,-7.116 -5.805,-8.396l0 -45.822c5.562,4.933 11.103,9.679 16.543,14.548l0 14.871c-2.391,1.033 -4.064,3.414 -4.064,6.185 0,3.721 3.016,6.738 6.737,6.738 3.722,0 6.738,-3.017 6.738,-6.738 0,-2.515 -1.378,-4.708 -3.42,-5.865l0 -9.723c11.082,10.349 21.619,21.708 30.932,36.807l-18.369 17.155 -14.5 -1.203 -0.073 -0.079 -0.07 0.067 -0.091 -0.008 0 0.093 -43.889 40.989c-0.973,-0.368 -2.029,-0.57 -3.132,-0.57 -4.889,0 -8.853,3.964 -8.853,8.853 0,4.889 3.964,8.853 8.853,8.853 4.89,0 8.854,-3.964 8.854,-8.853 0,-0.832 -0.115,-1.637 -0.329,-2.4l41.475 -38.735 14.422 1.197 0.112 0.12 19.706 -18.404c1.178,2.149 2.334,4.369 3.465,6.669 5.475,11.139 9.287,22.109 11.931,33.059l-37.723 0c-0.97,-2.572 -3.452,-4.4 -6.361,-4.4 -3.756,0 -6.802,3.045 -6.802,6.799 0,3.755 3.046,6.799 6.802,6.799 2.909,0 5.391,-1.828 6.361,-4.4l38.809 0c1.221,5.776 2.137,11.552 2.82,17.348l-64.301 0c-1.186,-3.14 -4.216,-5.372 -7.771,-5.372 -4.585,0 -8.303,3.717 -8.303,8.304 0,4.585 3.718,8.302 8.303,8.302 3.555,0 6.585,-2.234 7.771,-5.372l64.916 0c3.635,39.512 -2.369,80.312 4.719,129.053 2.038,14.013 5.109,30.197 9.539,43.141 1.592,4.649 3.366,8.535 4.811,12.923zm-61.914 -64.201c-2.515,1.708 -9.601,9.376 -12.135,12.095 -7.9,8.477 -5.207,3.131 -5.209,19.537 0,5.262 -0.02,10.54 0.02,15.801 0.068,8.676 -4.209,7.873 -1.888,12.877 1.929,4.159 7.225,4.285 9.772,0.813 1.111,-1.515 1.495,-4.264 0.431,-6.209 -2.625,-4.793 -2.54,0.994 -2.534,-12.753 0.01,-29.113 -3.678,-19.548 12.765,-36.201 6.766,-6.851 3.856,-2.013 7.515,-4.614 2.661,-1.892 2.937,-6.054 1.226,-8.594 -3.346,-4.977 -13.385,-2.94 -9.963,7.248z"/>
 </g>
</svg>
