<?xml version="1.0" encoding="UTF-8"?>
<!DOCTYPE svg PUBLIC "-//W3C//DTD SVG 1.1//EN" "http://www.w3.org/Graphics/SVG/1.1/DTD/svg11.dtd">
<!-- Creator: CorelDRAW -->
<svg xmlns="http://www.w3.org/2000/svg" xml:space="preserve" width="512px" height="512px" version="1.1" shape-rendering="geometricPrecision" text-rendering="geometricPrecision" image-rendering="optimizeQuality" fill-rule="evenodd" clip-rule="evenodd"
viewBox="0 0 512 512"
 xmlns:xlink="http://www.w3.org/1999/xlink"
 xmlns:xodm="http://www.corel.com/coreldraw/odm/2003">
 <g id="Слой_x0020_1">
  <metadata id="CorelCorpID_0Corel-Layer"/>
  <path fill="#999999" d="M420.151 416.146l-29.103 19.229c-2.023,1.368 -7.934,5.32 -15.802,10.552l0 -62.856 15.942 -15.655c3.394,-0.002 6.144,-2.754 6.144,-6.149 0,-3.395 -2.753,-6.148 -6.148,-6.148 -3.396,0 -6.148,2.753 -6.148,6.148 0,0.664 0.106,1.302 0.3,1.9l-17.087 16.778 -0.136 0 0 0.134 -0.034 0.034 0.034 0.035 0 70.514c-24.962,16.55 -61.276,40.399 -65.682,42.24l0.083 -146.783c10.162,-7.872 51.459,-18.426 62.572,-54.724 3.445,-11.251 2.177,-24.651 3.722,-36.74l-72.071 15.398c-6.559,1.19 -19.497,2.521 -25.018,4.317 -1.585,-6.645 -0.618,-45.347 -0.656,-55.224 -0.071,-18.354 -0.484,-36.515 -0.879,-54.829 -0.655,-30.351 -2.021,-51.898 -3.352,-80.778 -0.407,-8.822 -1.628,-17.296 -2.151,-25.875l-0.046 -0.095c-0.05,0.09 -0.1,0.189 -0.15,0.297 -0.533,8.458 -1.727,16.819 -2.128,25.518 -1.332,28.881 -2.697,50.428 -3.352,80.779 -0.395,18.315 -0.808,36.476 -0.879,54.829 -0.038,9.877 0.928,48.579 -0.657,55.224 -5.521,-1.796 -18.458,-3.128 -25.017,-4.317l-72.072 -15.398c1.546,12.09 0.277,25.49 3.722,36.741 11.114,36.296 52.411,46.852 62.572,54.722l0.084 146.785c-6.407,-2.678 -80.301,-51.903 -88.617,-57.528l-29.104 -19.229c1.446,-4.389 3.22,-8.274 4.812,-12.924 4.43,-12.943 7.501,-29.127 9.538,-43.141 10.747,-73.896 -8.603,-129.541 21.172,-190.119 21.82,-44.392 52.828,-59.524 81.81,-90.478 5.152,-5.502 10.309,-11.866 15.097,-19.164 8.48,-12.929 15.041,-25.215 20.527,-40.001 0.416,-1.12 0.785,-2.309 1.099,-3.144 0.514,-1.374 -0.034,-0.155 0.634,-1.558 0.519,-1.09 0.331,-0.755 0.856,-1.43l0.078 0.222c0.459,0.584 0.303,0.31 0.803,1.361 0.667,1.405 0.119,0.185 0.633,1.558 0.314,0.836 0.683,2.025 1.099,3.145 5.486,14.786 12.048,27.071 20.528,40 1.733,2.643 3.516,5.162 5.328,7.564l0 102.831c-3.974,1.5 -6.801,5.337 -6.801,9.835 0,5.805 4.705,10.511 10.511,10.511 5.803,0 10.509,-4.706 10.509,-10.511 0,-4.498 -2.828,-8.335 -6.801,-9.835l0 -93.801c0.783,0.877 1.567,1.733 2.351,2.571 4.773,5.097 9.599,9.764 14.432,14.204l0 51.529c-3.392,1.279 -5.805,4.555 -5.805,8.395 0,4.955 4.017,8.971 8.97,8.971 4.953,0 8.971,-4.016 8.971,-8.971 0,-3.84 -2.413,-7.116 -5.805,-8.395l0 -45.823c5.562,4.933 11.103,9.679 16.543,14.548l0 14.871c-2.391,1.034 -4.064,3.414 -4.064,6.186 0,3.721 3.016,6.738 6.737,6.738 3.722,0 6.738,-3.017 6.738,-6.738 0,-2.516 -1.378,-4.709 -3.42,-5.865l0 -9.723c11.082,10.348 21.619,21.708 30.931,36.806l-18.368 17.155 -14.5 -1.203 -0.073 -0.078 -0.07 0.066 -0.091 -0.008 0 0.093 -43.889 40.989c-0.973,-0.367 -2.029,-0.57 -3.132,-0.57 -4.889,0 -8.853,3.964 -8.853,8.853 0,4.89 3.964,8.854 8.853,8.854 4.89,0 8.854,-3.964 8.854,-8.854 0,-0.831 -0.115,-1.636 -0.329,-2.399l41.475 -38.735 14.422 1.197 0.112 0.119 19.706 -18.404c1.178,2.15 2.333,4.369 3.465,6.67 5.474,11.138 9.287,22.109 11.931,33.058l-37.723 0c-0.97,-2.571 -3.452,-4.4 -6.361,-4.4 -3.756,0 -6.802,3.045 -6.802,6.8 0,3.755 3.046,6.799 6.802,6.799 2.909,0 5.391,-1.829 6.361,-4.4l38.809 0c1.221,5.776 2.137,11.551 2.82,17.348l-64.301 0c-1.186,-3.14 -4.216,-5.372 -7.771,-5.372 -4.585,0 -8.303,3.717 -8.303,8.304 0,4.584 3.718,8.302 8.303,8.302 3.555,0 6.585,-2.235 7.771,-5.373l64.916 0c3.635,39.512 -2.369,80.312 4.719,129.053 2.038,14.013 5.109,30.198 9.539,43.141 1.592,4.65 3.365,8.535 4.811,12.924zm-61.914 -64.202c-2.515,1.709 -9.601,9.376 -12.135,12.096 -7.9,8.477 -5.207,3.131 -5.21,19.536 0,5.263 -0.019,10.54 0.021,15.802 0.068,8.676 -4.209,7.872 -1.889,12.876 1.93,4.16 7.226,4.286 9.773,0.814 1.111,-1.515 1.495,-4.265 0.43,-6.209 -2.624,-4.794 -2.539,0.993 -2.533,-12.753 0.01,-29.113 -3.678,-19.548 12.765,-36.202 6.765,-6.851 3.855,-2.013 7.515,-4.613 2.661,-1.893 2.937,-6.054 1.226,-8.595 -3.346,-4.976 -13.386,-2.94 -9.963,7.248z"/>
 </g>
</svg>
